<svg xmlns="http://www.w3.org/2000/svg" viewBox="0 0 24 24" aria-hidden="true" focusable="false">
  <!-- Tripleseat brand mark (official paths from ts-logo-2026.svg): dark "t" + pink spark, no background -->
  <g transform="translate(12 12) scale(0.13) translate(-628.2 -71.8)">
    <path fill="#1b3d39" d="M619.177 143.599C604.351 143.599 593.305 135.605 593.305 118.453V84.587H580.95V69.18H593.305V48.868H611.619V69.18H627.997V84.587H611.619V116.709C611.619 123.686 615.398 127.466 621.067 127.466C623.829 127.466 627.026 127.029 629.642 125.721L630.951 141.71C627.318 143.018 623.392 143.599 619.177 143.599Z"/>
    <path fill="#ff4593" d="M674.109 62.417L646.385 69.23C646.766 71.597 646.971 74.022 646.971 76.495C646.971 79.005 646.758 81.466 646.366 83.867L674.09 90.68C674.985 86.086 675.468 81.347 675.468 76.495C675.468 71.681 674.991 66.978 674.109 62.417Z"/>
    <path fill="#ff4593" d="M588.318 1.359L595.131 29.083C597.498 28.702 599.923 28.498 602.396 28.498C604.906 28.498 607.367 28.71 609.768 29.102L616.581 1.378C611.987 0.484 607.248 0 602.396 0C597.582 0 592.879 0.478 588.318 1.359Z"/>
    <path fill="#ff4593" d="M639.925 49.478L664.35 34.69C659.033 26.803 652.241 19.992 644.371 14.652L629.58 39.08C633.562 41.968 637.056 45.482 639.925 49.478Z"/>
  </g>
</svg>
